G04*
G04 #@! TF.GenerationSoftware,Altium Limited,Altium Designer,25.8.1 (18)*
G04*
G04 Layer_Physical_Order=2*
G04 Layer_Color=36540*
%FSLAX44Y44*%
%MOMM*%
G71*
G04*
G04 #@! TF.SameCoordinates,CB7AE753-39BB-4508-A2AF-D9C63A25AC19*
G04*
G04*
G04 #@! TF.FilePolarity,Positive*
G04*
G01*
G75*
%ADD58C,0.6500*%
%ADD59R,1.5700X1.5700*%
%ADD60C,1.5700*%
%ADD63C,1.2500*%
G04:AMPARAMS|DCode=66|XSize=0.9mm|YSize=1.7mm|CornerRadius=0.45mm|HoleSize=0mm|Usage=FLASHONLY|Rotation=0.000|XOffset=0mm|YOffset=0mm|HoleType=Round|Shape=RoundedRectangle|*
%AMROUNDEDRECTD66*
21,1,0.9000,0.8000,0,0,0.0*
21,1,0.0000,1.7000,0,0,0.0*
1,1,0.9000,0.0000,-0.4000*
1,1,0.9000,0.0000,-0.4000*
1,1,0.9000,0.0000,0.4000*
1,1,0.9000,0.0000,0.4000*
%
%ADD66ROUNDEDRECTD66*%
G04:AMPARAMS|DCode=67|XSize=0.9mm|YSize=2.4mm|CornerRadius=0.45mm|HoleSize=0mm|Usage=FLASHONLY|Rotation=0.000|XOffset=0mm|YOffset=0mm|HoleType=Round|Shape=RoundedRectangle|*
%AMROUNDEDRECTD67*
21,1,0.9000,1.5000,0,0,0.0*
21,1,0.0000,2.4000,0,0,0.0*
1,1,0.9000,0.0000,-0.7500*
1,1,0.9000,0.0000,-0.7500*
1,1,0.9000,0.0000,0.7500*
1,1,0.9000,0.0000,0.7500*
%
%ADD67ROUNDEDRECTD67*%
%ADD71C,3.5000*%
%ADD72C,4.7000*%
%ADD73C,5.7000*%
%ADD74C,0.6000*%
%ADD75C,0.4500*%
G36*
X-117605Y3609D02*
X-346391D01*
Y204173D01*
X-345191Y204363D01*
X-344656Y202716D01*
X-342369Y198228D01*
X-339408Y194153D01*
X-335847Y190592D01*
X-331772Y187631D01*
X-327284Y185344D01*
X-322493Y183788D01*
X-317519Y183000D01*
X-312481D01*
X-307507Y183788D01*
X-302716Y185344D01*
X-298228Y187631D01*
X-294153Y190592D01*
X-290592Y194153D01*
X-287631Y198228D01*
X-285344Y202716D01*
X-283788Y207507D01*
X-283000Y212481D01*
Y217519D01*
X-283788Y222493D01*
X-285344Y227284D01*
X-287631Y231772D01*
X-290592Y235847D01*
X-294153Y239408D01*
X-298228Y242369D01*
X-302716Y244656D01*
X-304363Y245191D01*
X-304173Y246391D01*
X-117605D01*
Y3609D01*
D02*
G37*
G36*
X198444Y196556D02*
X86250D01*
Y247451D01*
X198444D01*
Y196556D01*
D02*
G37*
G36*
X347451Y-47451D02*
X242549D01*
Y0D01*
X242355Y975D01*
X241802Y1802D01*
X240975Y2355D01*
X240000Y2549D01*
X-103444D01*
Y247451D01*
X73750D01*
Y191896D01*
X73667Y191697D01*
X73444Y190000D01*
X73667Y188303D01*
X74322Y186722D01*
X75364Y185364D01*
X76722Y184322D01*
X78303Y183667D01*
X80000Y183444D01*
X205000D01*
X206697Y183667D01*
X208278Y184322D01*
X209636Y185364D01*
X210678Y186722D01*
X211333Y188303D01*
X211556Y190000D01*
Y247451D01*
X347451D01*
X347451Y-47451D01*
D02*
G37*
%LPC*%
G36*
X-212132Y76000D02*
X-216268D01*
X-220326Y75193D01*
X-224147Y73610D01*
X-227587Y71312D01*
X-230512Y68387D01*
X-232810Y64947D01*
X-234393Y61125D01*
X-235200Y57068D01*
Y52932D01*
X-234393Y48875D01*
X-232810Y45053D01*
X-230512Y41613D01*
X-227587Y38688D01*
X-224147Y36390D01*
X-220326Y34807D01*
X-216268Y34000D01*
X-212132D01*
X-208074Y34807D01*
X-204253Y36390D01*
X-200813Y38688D01*
X-197888Y41613D01*
X-195590Y45053D01*
X-194007Y48875D01*
X-193200Y52932D01*
Y57068D01*
X-194007Y61125D01*
X-195590Y64947D01*
X-197888Y68387D01*
X-200813Y71312D01*
X-204253Y73610D01*
X-208074Y75193D01*
X-212132Y76000D01*
D02*
G37*
G36*
X-313732D02*
X-317868D01*
X-321926Y75193D01*
X-325747Y73610D01*
X-329187Y71312D01*
X-332112Y68387D01*
X-334410Y64947D01*
X-335993Y61125D01*
X-336800Y57068D01*
Y52932D01*
X-335993Y48875D01*
X-334410Y45053D01*
X-332112Y41613D01*
X-329187Y38688D01*
X-325747Y36390D01*
X-321926Y34807D01*
X-317868Y34000D01*
X-313732D01*
X-309674Y34807D01*
X-305853Y36390D01*
X-302413Y38688D01*
X-299488Y41613D01*
X-297190Y45053D01*
X-295607Y48875D01*
X-294800Y52932D01*
Y57068D01*
X-295607Y61125D01*
X-297190Y64947D01*
X-299488Y68387D01*
X-302413Y71312D01*
X-305853Y73610D01*
X-309674Y75193D01*
X-313732Y76000D01*
D02*
G37*
G36*
X317361Y245000D02*
X312639D01*
X307975Y244261D01*
X303484Y242802D01*
X299277Y240658D01*
X295456Y237883D01*
X292117Y234544D01*
X289342Y230723D01*
X287198Y226516D01*
X285739Y222025D01*
X285000Y217361D01*
Y212639D01*
X285739Y207975D01*
X287198Y203484D01*
X289342Y199277D01*
X292117Y195456D01*
X295456Y192117D01*
X299277Y189342D01*
X303484Y187198D01*
X307975Y185739D01*
X312639Y185000D01*
X317361D01*
X322025Y185739D01*
X326516Y187198D01*
X330723Y189342D01*
X334544Y192117D01*
X337883Y195456D01*
X340658Y199277D01*
X342802Y203484D01*
X344261Y207975D01*
X345000Y212639D01*
Y217361D01*
X344261Y222025D01*
X342802Y226516D01*
X340658Y230723D01*
X337883Y234544D01*
X334544Y237883D01*
X330723Y240658D01*
X326516Y242802D01*
X322025Y244261D01*
X317361Y245000D01*
D02*
G37*
G36*
X142145Y160750D02*
X140355D01*
X138701Y160065D01*
X138125Y159489D01*
X137549Y160065D01*
X135895Y160750D01*
X134105D01*
X132451Y160065D01*
X131875Y159489D01*
X131299Y160065D01*
X129645Y160750D01*
X127855D01*
X126201Y160065D01*
X124935Y158799D01*
X124250Y157145D01*
Y155355D01*
X124935Y153701D01*
X125511Y153125D01*
X124935Y152549D01*
X124250Y150895D01*
Y149105D01*
X124935Y147451D01*
X126201Y146185D01*
X127855Y145500D01*
X129645D01*
X131299Y146185D01*
X131875Y146761D01*
X132451Y146185D01*
X134105Y145500D01*
X135895D01*
X137549Y146185D01*
X138125Y146761D01*
X138701Y146185D01*
X140355Y145500D01*
X142145D01*
X143799Y146185D01*
X145065Y147451D01*
X145750Y149105D01*
Y150895D01*
X145065Y152549D01*
X144489Y153125D01*
X145065Y153701D01*
X145750Y155355D01*
Y157145D01*
X145065Y158799D01*
X143799Y160065D01*
X142145Y160750D01*
D02*
G37*
G36*
X16431Y155036D02*
X14641D01*
X12987Y154351D01*
X11721Y153085D01*
X11036Y151431D01*
Y149641D01*
X11721Y147987D01*
X12987Y146721D01*
X14641Y146036D01*
X16431D01*
X18085Y146721D01*
X19351Y147987D01*
X20036Y149641D01*
Y151431D01*
X19351Y153085D01*
X18085Y154351D01*
X16431Y155036D01*
D02*
G37*
G36*
X-25856Y145750D02*
X-28144D01*
X-30000Y144981D01*
X-31856Y145750D01*
X-34144D01*
X-36257Y144875D01*
X-37875Y143257D01*
X-38750Y141144D01*
Y138856D01*
X-37875Y136743D01*
X-36257Y135125D01*
X-34144Y134250D01*
X-31856D01*
X-30000Y135019D01*
X-28144Y134250D01*
X-25856D01*
X-23743Y135125D01*
X-22125Y136743D01*
X-21250Y138856D01*
Y141144D01*
X-22125Y143257D01*
X-23743Y144875D01*
X-25856Y145750D01*
D02*
G37*
G36*
X308395Y143250D02*
X306605D01*
X304951Y142565D01*
X303685Y141299D01*
X303000Y139645D01*
Y137855D01*
X303685Y136201D01*
X304825Y135062D01*
X304894Y134375D01*
X304825Y133688D01*
X303685Y132549D01*
X303000Y130895D01*
Y129105D01*
X303685Y127451D01*
X304825Y126312D01*
X304894Y125625D01*
X304825Y124938D01*
X303811Y123925D01*
X303125Y123856D01*
X302439Y123925D01*
X301299Y125065D01*
X299645Y125750D01*
X297855D01*
X296201Y125065D01*
X294935Y123799D01*
X294250Y122145D01*
Y120355D01*
X294935Y118701D01*
X296201Y117435D01*
X297855Y116750D01*
X299645D01*
X301299Y117435D01*
X302439Y118575D01*
X303125Y118644D01*
X303811Y118575D01*
X304951Y117435D01*
X306605Y116750D01*
X308395D01*
X310049Y117435D01*
X311315Y118701D01*
X312000Y120355D01*
Y122145D01*
X311315Y123799D01*
X310175Y124938D01*
X310106Y125625D01*
X310175Y126312D01*
X311315Y127451D01*
X312000Y129105D01*
Y130895D01*
X311315Y132549D01*
X310175Y133688D01*
X310106Y134375D01*
X310175Y135062D01*
X311315Y136201D01*
X312000Y137855D01*
Y139645D01*
X311315Y141299D01*
X310049Y142565D01*
X308395Y143250D01*
D02*
G37*
G36*
X199645Y120750D02*
X197855D01*
X196201Y120065D01*
X195000Y118864D01*
X193799Y120065D01*
X192145Y120750D01*
X190355D01*
X188701Y120065D01*
X187435Y118799D01*
X186750Y117145D01*
Y115355D01*
X187435Y113701D01*
X188636Y112500D01*
X187435Y111299D01*
X186750Y109645D01*
Y107855D01*
X187435Y106201D01*
X188701Y104935D01*
X190355Y104250D01*
X192145D01*
X193799Y104935D01*
X195000Y106136D01*
X196201Y104935D01*
X197855Y104250D01*
X199645D01*
X201299Y104935D01*
X202565Y106201D01*
X203250Y107855D01*
Y109645D01*
X202565Y111299D01*
X201364Y112500D01*
X202565Y113701D01*
X203250Y115355D01*
Y117145D01*
X202565Y118799D01*
X201299Y120065D01*
X199645Y120750D01*
D02*
G37*
G36*
X234645D02*
X232855D01*
X231201Y120065D01*
X230000Y118864D01*
X228799Y120065D01*
X227145Y120750D01*
X225355D01*
X223701Y120065D01*
X222435Y118799D01*
X221750Y117145D01*
Y115355D01*
X222435Y113701D01*
X223636Y112500D01*
X222435Y111299D01*
X221750Y109645D01*
Y107855D01*
X222435Y106201D01*
X223701Y104935D01*
X225355Y104250D01*
X227145D01*
X228799Y104935D01*
X230000Y106136D01*
X231201Y104935D01*
X232855Y104250D01*
X234645D01*
X236299Y104935D01*
X237565Y106201D01*
X238250Y107855D01*
Y109645D01*
X237565Y111299D01*
X236364Y112500D01*
X237565Y113701D01*
X238250Y115355D01*
Y117145D01*
X237565Y118799D01*
X236299Y120065D01*
X234645Y120750D01*
D02*
G37*
G36*
X-40355Y119500D02*
X-42145D01*
X-43799Y118815D01*
X-45065Y117549D01*
X-45750Y115895D01*
Y114105D01*
X-45065Y112451D01*
X-43799Y111185D01*
X-42145Y110500D01*
X-40355D01*
X-38701Y111185D01*
X-37435Y112451D01*
X-36750Y114105D01*
Y115895D01*
X-37435Y117549D01*
X-38701Y118815D01*
X-40355Y119500D01*
D02*
G37*
G36*
X-55355D02*
X-57145D01*
X-58799Y118815D01*
X-60065Y117549D01*
X-60750Y115895D01*
Y114105D01*
X-60065Y112451D01*
X-58799Y111185D01*
X-57145Y110500D01*
X-55355D01*
X-53701Y111185D01*
X-52435Y112451D01*
X-51750Y114105D01*
Y115895D01*
X-52435Y117549D01*
X-53701Y118815D01*
X-55355Y119500D01*
D02*
G37*
G36*
X-70355D02*
X-72145D01*
X-73799Y118815D01*
X-75065Y117549D01*
X-75750Y115895D01*
Y114105D01*
X-75065Y112451D01*
X-73799Y111185D01*
X-72145Y110500D01*
X-70355D01*
X-68701Y111185D01*
X-67435Y112451D01*
X-66750Y114105D01*
Y115895D01*
X-67435Y117549D01*
X-68701Y118815D01*
X-70355Y119500D01*
D02*
G37*
G36*
X28246Y115000D02*
X26754D01*
X25376Y114429D01*
X24321Y113374D01*
X23750Y111996D01*
Y110504D01*
X24321Y109126D01*
X25376Y108071D01*
X26754Y107500D01*
X28246D01*
X29624Y108071D01*
X30679Y109126D01*
X31250Y110504D01*
Y111996D01*
X30679Y113374D01*
X29624Y114429D01*
X28246Y115000D01*
D02*
G37*
G36*
X-94105Y120750D02*
X-95895D01*
X-97549Y120065D01*
X-98815Y118799D01*
X-99500Y117145D01*
Y115355D01*
X-98815Y113701D01*
X-97614Y112500D01*
X-98815Y111299D01*
X-99500Y109645D01*
Y107855D01*
X-98815Y106201D01*
X-97549Y104935D01*
X-95895Y104250D01*
X-94105D01*
X-92451Y104935D01*
X-91185Y106201D01*
X-90500Y107855D01*
Y109645D01*
X-91185Y111299D01*
X-92386Y112500D01*
X-91185Y113701D01*
X-90500Y115355D01*
Y117145D01*
X-91185Y118799D01*
X-92451Y120065D01*
X-94105Y120750D01*
D02*
G37*
G36*
X-13754Y105750D02*
X-15246D01*
X-16624Y105179D01*
X-17679Y104124D01*
X-18250Y102746D01*
Y101254D01*
X-17679Y99876D01*
X-16624Y98821D01*
X-15246Y98250D01*
X-13754D01*
X-12376Y98821D01*
X-11321Y99876D01*
X-10750Y101254D01*
Y102746D01*
X-11321Y104124D01*
X-12376Y105179D01*
X-13754Y105750D01*
D02*
G37*
G36*
X-7754Y91750D02*
X-9246D01*
X-10624Y91179D01*
X-11679Y90124D01*
X-12250Y88746D01*
Y87254D01*
X-11679Y85876D01*
X-10624Y84821D01*
X-9246Y84250D01*
X-7754D01*
X-6376Y84821D01*
X-5321Y85876D01*
X-4750Y87254D01*
Y88746D01*
X-5321Y90124D01*
X-6376Y91179D01*
X-7754Y91750D01*
D02*
G37*
G36*
X110895Y77000D02*
X109105D01*
X107451Y76315D01*
X106185Y75049D01*
X105500Y73395D01*
Y71605D01*
X106185Y69951D01*
X107451Y68685D01*
X109105Y68000D01*
X110895D01*
X112549Y68685D01*
X113815Y69951D01*
X114500Y71605D01*
Y73395D01*
X113815Y75049D01*
X112549Y76315D01*
X110895Y77000D01*
D02*
G37*
G36*
X-33355Y76500D02*
X-35145D01*
X-36799Y75815D01*
X-38065Y74549D01*
X-38750Y72895D01*
Y71105D01*
X-38065Y69451D01*
X-36799Y68185D01*
X-35145Y67500D01*
X-33355D01*
X-31701Y68185D01*
X-30435Y69451D01*
X-29750Y71105D01*
Y72895D01*
X-30435Y74549D01*
X-31701Y75815D01*
X-33355Y76500D01*
D02*
G37*
G36*
X42395Y82500D02*
X40605D01*
X38951Y81815D01*
X37685Y80549D01*
X37000Y78895D01*
Y77105D01*
X37685Y75451D01*
X38352Y74784D01*
X38837Y74000D01*
X38352Y73216D01*
X37685Y72549D01*
X37000Y70895D01*
Y69105D01*
X37685Y67451D01*
X38951Y66185D01*
X40605Y65500D01*
X42395D01*
X44049Y66185D01*
X45315Y67451D01*
X46000Y69105D01*
Y70895D01*
X45315Y72549D01*
X44648Y73216D01*
X44163Y74000D01*
X44648Y74784D01*
X45315Y75451D01*
X46000Y77105D01*
Y78895D01*
X45315Y80549D01*
X44049Y81815D01*
X42395Y82500D01*
D02*
G37*
G36*
X-7754Y77750D02*
X-9246D01*
X-10624Y77179D01*
X-11679Y76124D01*
X-12250Y74746D01*
Y73254D01*
X-11679Y71876D01*
X-10803Y71000D01*
X-11679Y70124D01*
X-12250Y68746D01*
Y67254D01*
X-11679Y65876D01*
X-10624Y64821D01*
X-9246Y64250D01*
X-7754D01*
X-6376Y64821D01*
X-5321Y65876D01*
X-4750Y67254D01*
Y68746D01*
X-5321Y70124D01*
X-6197Y71000D01*
X-5321Y71876D01*
X-4750Y73254D01*
Y74746D01*
X-5321Y76124D01*
X-6376Y77179D01*
X-7754Y77750D01*
D02*
G37*
G36*
X254894Y74500D02*
X252606D01*
X250493Y73625D01*
X248875Y72007D01*
X248000Y69894D01*
Y67606D01*
X248769Y65750D01*
X248000Y63894D01*
Y61606D01*
X248875Y59493D01*
X250493Y57875D01*
X252606Y57000D01*
X254894D01*
X257007Y57875D01*
X258625Y59493D01*
X259500Y61606D01*
Y63894D01*
X258731Y65750D01*
X259500Y67606D01*
Y69894D01*
X258625Y72007D01*
X257007Y73625D01*
X254894Y74500D01*
D02*
G37*
G36*
X237145Y50750D02*
X235355D01*
X233701Y50065D01*
X233125Y49489D01*
X232549Y50065D01*
X230895Y50750D01*
X229105D01*
X227451Y50065D01*
X226875Y49489D01*
X226299Y50065D01*
X224645Y50750D01*
X222855D01*
X221201Y50065D01*
X219935Y48799D01*
X219250Y47145D01*
Y45355D01*
X219935Y43701D01*
X221201Y42435D01*
X222855Y41750D01*
X224645D01*
X226299Y42435D01*
X226875Y43011D01*
X227451Y42435D01*
X229105Y41750D01*
X230895D01*
X232549Y42435D01*
X233125Y43011D01*
X233701Y42435D01*
X235355Y41750D01*
X237145D01*
X238799Y42435D01*
X240065Y43701D01*
X240750Y45355D01*
Y47145D01*
X240065Y48799D01*
X238799Y50065D01*
X237145Y50750D01*
D02*
G37*
G36*
X-31605Y64500D02*
X-33395D01*
X-35049Y63815D01*
X-36315Y62549D01*
X-37000Y60895D01*
Y59105D01*
X-36315Y57451D01*
X-35049Y56185D01*
X-33731Y55639D01*
X-32840Y54655D01*
Y52864D01*
X-32155Y51211D01*
X-30889Y49945D01*
X-29235Y49260D01*
X-27445D01*
X-25791Y49945D01*
X-24525Y51211D01*
X-23840Y52864D01*
Y54655D01*
X-24525Y56309D01*
X-25791Y57575D01*
X-27109Y58120D01*
X-28000Y59105D01*
Y60895D01*
X-28685Y62549D01*
X-29951Y63815D01*
X-31605Y64500D01*
D02*
G37*
G36*
X40746Y52500D02*
X39254D01*
X37876Y51929D01*
X36821Y50874D01*
X36250Y49496D01*
Y48004D01*
X36821Y46626D01*
X37876Y45571D01*
X39254Y45000D01*
X40746D01*
X42124Y45571D01*
X43179Y46626D01*
X43750Y48004D01*
Y49496D01*
X43179Y50874D01*
X42124Y51929D01*
X40746Y52500D01*
D02*
G37*
G36*
X-15605Y40500D02*
X-17395D01*
X-19049Y39815D01*
X-20315Y38549D01*
X-21000Y36895D01*
Y35105D01*
X-20315Y33451D01*
X-19049Y32185D01*
X-17395Y31500D01*
X-15605D01*
X-13951Y32185D01*
X-12685Y33451D01*
X-12000Y35105D01*
Y36895D01*
X-12685Y38549D01*
X-13951Y39815D01*
X-15605Y40500D01*
D02*
G37*
G36*
X133931Y43050D02*
X131469D01*
X129091Y42413D01*
X126959Y41182D01*
X125218Y39441D01*
X123987Y37309D01*
X123350Y34931D01*
Y32469D01*
X123987Y30091D01*
X125218Y27959D01*
X126959Y26218D01*
X129091Y24987D01*
X131469Y24350D01*
X133931D01*
X136309Y24987D01*
X138441Y26218D01*
X140182Y27959D01*
X141413Y30091D01*
X142050Y32469D01*
Y34931D01*
X141413Y37309D01*
X140182Y39441D01*
X138441Y41182D01*
X136309Y42413D01*
X133931Y43050D01*
D02*
G37*
G36*
X108531D02*
X106069D01*
X103691Y42413D01*
X101559Y41182D01*
X99818Y39441D01*
X98587Y37309D01*
X97950Y34931D01*
Y32469D01*
X98587Y30091D01*
X99818Y27959D01*
X101559Y26218D01*
X103691Y24987D01*
X106069Y24350D01*
X108531D01*
X110909Y24987D01*
X113041Y26218D01*
X114782Y27959D01*
X116013Y30091D01*
X116650Y32469D01*
Y34931D01*
X116013Y37309D01*
X114782Y39441D01*
X113041Y41182D01*
X110909Y42413D01*
X108531Y43050D01*
D02*
G37*
G36*
X83131D02*
X80669D01*
X78291Y42413D01*
X76159Y41182D01*
X74418Y39441D01*
X73187Y37309D01*
X72550Y34931D01*
Y32469D01*
X73187Y30091D01*
X74418Y27959D01*
X76159Y26218D01*
X78291Y24987D01*
X80669Y24350D01*
X83131D01*
X85509Y24987D01*
X87641Y26218D01*
X89382Y27959D01*
X90613Y30091D01*
X91250Y32469D01*
Y34931D01*
X90613Y37309D01*
X89382Y39441D01*
X87641Y41182D01*
X85509Y42413D01*
X83131Y43050D01*
D02*
G37*
G36*
X30395Y30500D02*
X28605D01*
X26951Y29815D01*
X25685Y28549D01*
X25000Y26895D01*
Y25105D01*
X25685Y23451D01*
X26951Y22185D01*
X28605Y21500D01*
X30395D01*
X32049Y22185D01*
X33315Y23451D01*
X34000Y25105D01*
Y26895D01*
X33315Y28549D01*
X32049Y29815D01*
X30395Y30500D01*
D02*
G37*
G36*
X308246Y26250D02*
X306754D01*
X305376Y25679D01*
X304321Y24624D01*
X303750Y23246D01*
Y21754D01*
X304321Y20376D01*
X305376Y19321D01*
X306754Y18750D01*
X308246D01*
X309624Y19321D01*
X310679Y20376D01*
X311250Y21754D01*
Y23246D01*
X310679Y24624D01*
X309624Y25679D01*
X308246Y26250D01*
D02*
G37*
G36*
X293644Y27000D02*
X291356D01*
X289243Y26125D01*
X287625Y24507D01*
X286750Y22394D01*
Y20106D01*
X287625Y17993D01*
X287518Y17178D01*
X286605Y16651D01*
X285349Y15395D01*
X285309Y15325D01*
X284941Y15277D01*
X283195Y16000D01*
X281305D01*
X279559Y15277D01*
X278784Y14502D01*
X278000Y14065D01*
X277216Y14502D01*
X276441Y15277D01*
X274695Y16000D01*
X272805D01*
X271059Y15277D01*
X269723Y13941D01*
X269000Y12195D01*
Y10305D01*
X269723Y8559D01*
X271059Y7223D01*
X272805Y6500D01*
X274695D01*
X276441Y7223D01*
X277216Y7998D01*
X278000Y8435D01*
X278784Y7998D01*
X279559Y7223D01*
X281305Y6500D01*
X283195D01*
X284941Y7223D01*
X285309Y7175D01*
X285349Y7105D01*
X286605Y5849D01*
X287789Y5165D01*
X287865Y4926D01*
Y4074D01*
X287789Y3835D01*
X286605Y3151D01*
X285349Y1895D01*
X285309Y1825D01*
X284941Y1777D01*
X283195Y2500D01*
X281305D01*
X279559Y1777D01*
X278784Y1001D01*
X278000Y565D01*
X277216Y1001D01*
X276441Y1777D01*
X274695Y2500D01*
X272805D01*
X271059Y1777D01*
X269723Y441D01*
X269000Y-1305D01*
Y-3195D01*
X269723Y-4941D01*
X271059Y-6277D01*
X272805Y-7000D01*
X274695D01*
X276441Y-6277D01*
X277216Y-5501D01*
X278000Y-5065D01*
X278784Y-5501D01*
X279559Y-6277D01*
X281305Y-7000D01*
X283195D01*
X284941Y-6277D01*
X285309Y-6325D01*
X285349Y-6395D01*
X286605Y-7651D01*
X288145Y-8540D01*
X289861Y-9000D01*
X291639D01*
X293355Y-8540D01*
X294895Y-7651D01*
X295000Y-7546D01*
X295105Y-7651D01*
X296645Y-8540D01*
X298361Y-9000D01*
X300139D01*
X301855Y-8540D01*
X303395Y-7651D01*
X304651Y-6395D01*
X304691Y-6325D01*
X305059Y-6277D01*
X306805Y-7000D01*
X308695D01*
X310441Y-6277D01*
X311216Y-5501D01*
X312000Y-5065D01*
X312784Y-5501D01*
X313559Y-6277D01*
X315305Y-7000D01*
X317195D01*
X318941Y-6277D01*
X320277Y-4941D01*
X321000Y-3195D01*
Y-1305D01*
X320277Y441D01*
X318941Y1777D01*
X317195Y2500D01*
X315305D01*
X313559Y1777D01*
X312784Y1001D01*
X312000Y565D01*
X311216Y1001D01*
X310441Y1777D01*
X308695Y2500D01*
X306805D01*
X305059Y1777D01*
X304691Y1825D01*
X304651Y1895D01*
X303395Y3151D01*
X302211Y3835D01*
X302135Y4074D01*
Y4926D01*
X302211Y5165D01*
X303395Y5849D01*
X304651Y7105D01*
X304691Y7175D01*
X305059Y7223D01*
X306805Y6500D01*
X308695D01*
X310441Y7223D01*
X311216Y7998D01*
X312000Y8435D01*
X312784Y7998D01*
X313559Y7223D01*
X315305Y6500D01*
X317195D01*
X318941Y7223D01*
X320277Y8559D01*
X321000Y10305D01*
Y12195D01*
X320277Y13941D01*
X318941Y15277D01*
X317195Y16000D01*
X315305D01*
X313559Y15277D01*
X312784Y14502D01*
X312000Y14065D01*
X311216Y14502D01*
X310441Y15277D01*
X308695Y16000D01*
X306805D01*
X305059Y15277D01*
X304691Y15325D01*
X304651Y15395D01*
X303395Y16651D01*
X301855Y17540D01*
X300139Y18000D01*
X298676D01*
X298036Y18679D01*
X297833Y19101D01*
X298250Y20106D01*
Y22394D01*
X297375Y24507D01*
X295757Y26125D01*
X293644Y27000D01*
D02*
G37*
G36*
X108320Y19850D02*
X106280D01*
X104309Y19322D01*
X102541Y18302D01*
X101098Y16859D01*
X100078Y15091D01*
X99550Y13120D01*
Y11080D01*
X100078Y9109D01*
X101098Y7341D01*
X102541Y5899D01*
X104309Y4878D01*
X106280Y4350D01*
X108320D01*
X110291Y4878D01*
X112059Y5899D01*
X113502Y7341D01*
X114522Y9109D01*
X115050Y11080D01*
Y13120D01*
X114522Y15091D01*
X113502Y16859D01*
X112059Y18302D01*
X110291Y19322D01*
X108320Y19850D01*
D02*
G37*
G36*
X338250Y15068D02*
X335909Y14602D01*
X333924Y13276D01*
X332598Y11291D01*
X332132Y8950D01*
Y-6050D01*
X332598Y-8391D01*
X333924Y-10376D01*
X335909Y-11702D01*
X338250Y-12168D01*
X340591Y-11702D01*
X342576Y-10376D01*
X343902Y-8391D01*
X344367Y-6050D01*
Y8950D01*
X343902Y11291D01*
X342576Y13276D01*
X340591Y14602D01*
X338250Y15068D01*
D02*
G37*
G36*
X251750D02*
X249409Y14602D01*
X247424Y13276D01*
X246098Y11291D01*
X245632Y8950D01*
Y-6050D01*
X246098Y-8391D01*
X247424Y-10376D01*
X249409Y-11702D01*
X251750Y-12168D01*
X254091Y-11702D01*
X256076Y-10376D01*
X257402Y-8391D01*
X257868Y-6050D01*
Y8950D01*
X257402Y11291D01*
X256076Y13276D01*
X254091Y14602D01*
X251750Y15068D01*
D02*
G37*
G36*
X338250Y-22232D02*
X335909Y-22698D01*
X333924Y-24024D01*
X332598Y-26009D01*
X332132Y-28350D01*
Y-36350D01*
X332598Y-38691D01*
X333924Y-40676D01*
X335909Y-42002D01*
X338250Y-42467D01*
X340591Y-42002D01*
X342576Y-40676D01*
X343902Y-38691D01*
X344367Y-36350D01*
Y-28350D01*
X343902Y-26009D01*
X342576Y-24024D01*
X340591Y-22698D01*
X338250Y-22232D01*
D02*
G37*
G36*
X251750D02*
X249409Y-22698D01*
X247424Y-24024D01*
X246098Y-26009D01*
X245632Y-28350D01*
Y-36350D01*
X246098Y-38691D01*
X247424Y-40676D01*
X249409Y-42002D01*
X251750Y-42467D01*
X254091Y-42002D01*
X256076Y-40676D01*
X257402Y-38691D01*
X257868Y-36350D01*
Y-28350D01*
X257402Y-26009D01*
X256076Y-24024D01*
X254091Y-22698D01*
X251750Y-22232D01*
D02*
G37*
%LPD*%
D58*
X324750Y11250D02*
D03*
Y-2250D02*
D03*
X265250Y11250D02*
D03*
Y-2250D02*
D03*
X273750Y11250D02*
D03*
X282250D02*
D03*
X290750D02*
D03*
X299250D02*
D03*
X307750D02*
D03*
X316250D02*
D03*
Y-2250D02*
D03*
X307750D02*
D03*
X299250D02*
D03*
X290750D02*
D03*
X282250D02*
D03*
X273750D02*
D03*
D59*
X158100Y33700D02*
D03*
D60*
X132700D02*
D03*
X107300D02*
D03*
X81900D02*
D03*
D63*
X107300Y12100D02*
D03*
D66*
X251750Y-32350D02*
D03*
X338250D02*
D03*
D67*
X251750Y1450D02*
D03*
X338250D02*
D03*
D71*
X-214200Y55000D02*
D03*
X-265000D02*
D03*
X-315800D02*
D03*
D72*
X172500Y222500D02*
D03*
D73*
X315000Y215000D02*
D03*
X-315000D02*
D03*
D74*
X41500Y70000D02*
D03*
X-16500Y36000D02*
D03*
X15536Y150536D02*
D03*
X-95000Y116250D02*
D03*
Y108750D02*
D03*
X128750Y150000D02*
D03*
X135000D02*
D03*
X141250D02*
D03*
Y156250D02*
D03*
X135000D02*
D03*
X128750D02*
D03*
X29500Y26000D02*
D03*
X-23750Y32500D02*
D03*
X37500Y26250D02*
D03*
X-38750Y65000D02*
D03*
X-36250Y47500D02*
D03*
X253750Y55000D02*
D03*
X-18750Y140000D02*
D03*
X-41250D02*
D03*
X253750Y76250D02*
D03*
X-90000Y20000D02*
D03*
X135500Y50000D02*
D03*
X65500D02*
D03*
X327500Y75000D02*
D03*
X212500Y56250D02*
D03*
X-70000Y235000D02*
D03*
X116250Y80000D02*
D03*
X-48750Y115000D02*
D03*
X-63750D02*
D03*
X30000Y240000D02*
D03*
X5000Y235000D02*
D03*
X15000D02*
D03*
X343750Y106250D02*
D03*
Y86250D02*
D03*
X343750Y75000D02*
D03*
X197500Y127500D02*
D03*
X215000D02*
D03*
X212500Y85000D02*
D03*
Y73750D02*
D03*
Y46250D02*
D03*
X135000Y65000D02*
D03*
X63750Y33750D02*
D03*
X37500Y90000D02*
D03*
X27500Y90000D02*
D03*
X17500D02*
D03*
X37500Y60000D02*
D03*
X17500Y50000D02*
D03*
X27500D02*
D03*
X7500D02*
D03*
X-2500Y56250D02*
D03*
X307500Y138750D02*
D03*
Y130000D02*
D03*
Y121250D02*
D03*
X198750Y108750D02*
D03*
X226250D02*
D03*
Y116250D02*
D03*
X198750D02*
D03*
X191250Y108750D02*
D03*
Y116250D02*
D03*
X233750Y108750D02*
D03*
Y116250D02*
D03*
X298750Y121250D02*
D03*
X236250Y46250D02*
D03*
X-71250Y115000D02*
D03*
X-41250D02*
D03*
X-56250D02*
D03*
X110000Y72500D02*
D03*
X223750Y46250D02*
D03*
X230000D02*
D03*
X-265000Y102500D02*
D03*
Y95000D02*
D03*
Y80000D02*
D03*
Y87500D02*
D03*
X-150000Y235200D02*
D03*
X-225000Y147750D02*
D03*
X-232500D02*
D03*
X-217500D02*
D03*
Y126250D02*
D03*
X-232500D02*
D03*
X-225000D02*
D03*
X-245000Y121750D02*
D03*
X-273750Y165500D02*
D03*
X-236250Y219500D02*
D03*
X-28340Y53760D02*
D03*
X-34250Y72000D02*
D03*
X-32500Y60000D02*
D03*
X41500Y78000D02*
D03*
D75*
X-14500Y102000D02*
D03*
X27500Y111250D02*
D03*
X-8500Y74000D02*
D03*
X110000Y144000D02*
D03*
X92500D02*
D03*
X115000Y129000D02*
D03*
Y104000D02*
D03*
Y116500D02*
D03*
X77500Y63750D02*
D03*
X75000Y144000D02*
D03*
X70000Y129000D02*
D03*
Y91500D02*
D03*
Y79764D02*
D03*
Y116500D02*
D03*
Y104000D02*
D03*
X63986Y73750D02*
D03*
X61250Y58750D02*
D03*
X72250D02*
D03*
X258214Y117500D02*
D03*
X234286Y155000D02*
D03*
X253750Y140000D02*
D03*
X187500Y132500D02*
D03*
X178036Y128750D02*
D03*
X207603Y134103D02*
D03*
X291250Y170250D02*
D03*
X298750D02*
D03*
X235000Y145000D02*
D03*
X-28000Y18000D02*
D03*
X-95000Y86964D02*
D03*
X92500Y78750D02*
D03*
X105000Y91250D02*
D03*
X-60000Y240000D02*
D03*
X-45000D02*
D03*
X-30000D02*
D03*
X-15000D02*
D03*
X225000D02*
D03*
X240000D02*
D03*
X255000D02*
D03*
X270000D02*
D03*
X285000D02*
D03*
X340000Y120000D02*
D03*
Y135000D02*
D03*
Y150000D02*
D03*
Y165000D02*
D03*
Y180000D02*
D03*
X-95000Y10000D02*
D03*
X-70000D02*
D03*
X-15000D02*
D03*
X67500Y22500D02*
D03*
X90000Y10000D02*
D03*
X130000D02*
D03*
X145000D02*
D03*
X160000D02*
D03*
X175000D02*
D03*
Y25000D02*
D03*
Y40000D02*
D03*
Y55000D02*
D03*
Y70000D02*
D03*
X160000D02*
D03*
Y55000D02*
D03*
Y85000D02*
D03*
X200000D02*
D03*
Y75000D02*
D03*
X215000Y5000D02*
D03*
X225000D02*
D03*
X235000D02*
D03*
X325000Y120000D02*
D03*
Y135000D02*
D03*
Y150000D02*
D03*
Y165000D02*
D03*
Y180000D02*
D03*
X-60000Y225000D02*
D03*
Y210000D02*
D03*
Y195000D02*
D03*
Y180000D02*
D03*
Y165000D02*
D03*
X-45000D02*
D03*
Y180000D02*
D03*
Y195000D02*
D03*
Y210000D02*
D03*
Y225000D02*
D03*
X-30000D02*
D03*
Y210000D02*
D03*
Y195000D02*
D03*
X-15000Y225000D02*
D03*
Y210000D02*
D03*
Y195000D02*
D03*
X45000Y10000D02*
D03*
X-95000Y75000D02*
D03*
Y60000D02*
D03*
Y45000D02*
D03*
Y30000D02*
D03*
Y165000D02*
D03*
Y150000D02*
D03*
Y135000D02*
D03*
Y180000D02*
D03*
Y195000D02*
D03*
Y210000D02*
D03*
Y225000D02*
D03*
Y240000D02*
D03*
X-80000Y225000D02*
D03*
X-85000Y140000D02*
D03*
X-55000D02*
D03*
X-70000D02*
D03*
X0Y195000D02*
D03*
Y210000D02*
D03*
X25000Y185000D02*
D03*
X40000D02*
D03*
X55000D02*
D03*
X70000D02*
D03*
X40000Y195000D02*
D03*
X55000D02*
D03*
X10000Y145000D02*
D03*
X15000Y115000D02*
D03*
Y130000D02*
D03*
X30000D02*
D03*
X40000Y115000D02*
D03*
X45000Y130000D02*
D03*
X100000Y158750D02*
D03*
X113750D02*
D03*
X135000Y120000D02*
D03*
X150000D02*
D03*
Y110000D02*
D03*
X135000D02*
D03*
X302500Y25825D02*
D03*
X302230Y43906D02*
D03*
X178036Y120000D02*
D03*
X307500Y22500D02*
D03*
X292500Y21250D02*
D03*
X122500Y202500D02*
D03*
X132500D02*
D03*
X142500D02*
D03*
Y242500D02*
D03*
X132500D02*
D03*
X122500D02*
D03*
X-175000Y10000D02*
D03*
X-190000D02*
D03*
X-205000D02*
D03*
X-220000D02*
D03*
X-235000D02*
D03*
X-250000D02*
D03*
X-265000D02*
D03*
X-280000D02*
D03*
X-295000D02*
D03*
X-310000D02*
D03*
X-325000D02*
D03*
X-340000D02*
D03*
Y180000D02*
D03*
Y165000D02*
D03*
Y150000D02*
D03*
Y135000D02*
D03*
Y120000D02*
D03*
Y105000D02*
D03*
X-285000Y240000D02*
D03*
X-270000D02*
D03*
X-255000D02*
D03*
X-240000D02*
D03*
X-225000D02*
D03*
X-210000D02*
D03*
X-195000D02*
D03*
X-180000D02*
D03*
X-165000D02*
D03*
X253750Y62750D02*
D03*
Y68750D02*
D03*
X-27000Y140000D02*
D03*
X-33000D02*
D03*
X40000Y48750D02*
D03*
X-8500Y68000D02*
D03*
Y88000D02*
D03*
M02*
